<svg width="41" height="41" viewBox="0 0 41 41" fill="none" xmlns="http://www.w3.org/2000/svg">
<path d="M20.5 0.435547L37.8205 10.4355V30.4355L20.5 40.4355L3.17949 30.4355V10.4355L20.5 0.435547Z" fill="black"/>
<path opacity="0.6" d="M12.9343 20.4355L15.0959 24.1795H10.7727L12.9343 20.4355Z" fill="white"/>
<path opacity="0.4" d="M12.9343 20.4354L10.7727 16.6914H15.0959L12.9343 20.4354Z" fill="white"/>
<path opacity="0.65" d="M12.9346 20.4355H17.2578L15.0962 24.1795L12.9346 20.4355Z" fill="white"/>
<path opacity="0.7" d="M12.9346 20.4354L15.0961 16.6914L17.2577 20.4354H12.9346Z" fill="white"/>
<path opacity="0.55" d="M25.904 20.4354H21.5808L23.7424 16.6914L25.904 20.4354Z" fill="white"/>
<path opacity="0.65" d="M25.904 20.4355L23.7424 24.1795L21.5808 20.4355H25.904Z" fill="white"/>
<path opacity="0.9" d="M32.3886 16.6912H28.0654L30.227 12.9473L32.3886 16.6912Z" fill="white"/>
<path opacity="0.75" d="M32.3886 16.6914L30.227 20.4354L28.0654 16.6914H32.3886Z" fill="white"/>
<path opacity="0.45" d="M19.4192 16.6914H23.7423L21.5807 20.4354L19.4192 16.6914Z" fill="white"/>
<path opacity="0.9" d="M19.4193 16.6912H15.0962L17.2577 12.9473L19.4193 16.6912Z" fill="white"/>
<path opacity="0.3" d="M19.4192 16.6912L21.5808 12.9473L23.7423 16.6912H19.4192Z" fill="white"/>
<path opacity="0.75" d="M19.4193 16.6914L17.2577 20.4354L15.0962 16.6914H19.4193Z" fill="white"/>
<path opacity="0.5" d="M12.9343 12.9473L15.0959 16.6912H10.7727L12.9343 12.9473Z" fill="white"/>
<path opacity="0.6" d="M12.9345 12.9473L10.7729 16.6912L8.61133 12.9473L12.9345 12.9473Z" fill="white"/>
<path opacity="0.3" d="M25.904 12.9473L28.0656 16.6912H23.7424L25.904 12.9473Z" fill="white"/>
<path opacity="0.95" d="M25.9038 12.9473L30.227 12.9473L28.0654 16.6912L25.9038 12.9473Z" fill="white"/>
<path opacity="0.45" d="M23.7424 16.6914L28.0656 16.6914L25.904 20.4354L23.7424 16.6914Z" fill="white"/>
<path opacity="0.55" d="M19.4192 24.1797L21.5807 27.9237H17.2576L19.4192 24.1797Z" fill="white"/>
<path opacity="0.3" d="M19.4193 24.1795H15.0962L17.2577 20.4355L19.4193 24.1795Z" fill="white"/>
<path opacity="0.45" d="M19.4193 24.1797L17.2577 27.9237L15.0962 24.1797H19.4193Z" fill="white"/>
<path opacity="0.55" d="M12.9343 27.9237L10.7727 24.1797H15.0959L12.9343 27.9237Z" fill="white"/>
<path opacity="0.5" d="M12.9345 27.9237H8.61133L10.7729 24.1797L12.9345 27.9237Z" fill="white"/>
<path opacity="0.95" d="M17.2576 12.9473L21.5807 12.9473L19.4191 16.6912L17.2576 12.9473Z" fill="white"/>
</svg>
