<svg width="209" height="52" viewBox="0 0 209 52" fill="none" xmlns="http://www.w3.org/2000/svg">
<g clip-path="url(#clip0_307_18574)">
<path opacity="0.6" d="M167.956 25.7603L172.506 33.6405H163.406L167.956 25.7603Z" fill="white"/>
<path opacity="0.4" d="M167.956 25.7604L163.406 17.8801H172.506L167.956 25.7604Z" fill="white"/>
<path opacity="0.65" d="M167.957 25.7607H177.057L172.507 33.641L167.957 25.7607Z" fill="white"/>
<path opacity="0.7" d="M167.957 25.7607L172.507 17.8804L177.057 25.7607H167.957Z" fill="white"/>
<path opacity="0.45" d="M195.274 25.7605L190.725 17.8801H199.825L195.274 25.7605Z" fill="white"/>
<path opacity="0.55" d="M195.275 25.7607H186.176L190.725 17.8804L195.275 25.7607Z" fill="white"/>
<path opacity="0.65" d="M195.275 25.7607L190.725 33.641L186.176 25.7607H195.275Z" fill="white"/>
<path opacity="0.9" d="M208.933 17.8803H199.834L204.384 10L208.933 17.8803Z" fill="white"/>
<path opacity="0.75" d="M208.933 17.8801L204.384 25.7604L199.834 17.8801H208.933Z" fill="white"/>
<path opacity="0.95" d="M181.616 17.8803L177.066 10H186.166L181.616 17.8803Z" fill="white"/>
<path opacity="0.45" d="M181.615 17.8804H190.714L186.165 25.7607L181.615 17.8804Z" fill="white"/>
<path opacity="0.9" d="M181.617 17.8803H172.518L177.067 10L181.617 17.8803Z" fill="white"/>
<path d="M181.615 17.8804L186.165 10L190.714 17.8804H181.615Z" fill="white" fill-opacity="0.3"/>
<path opacity="0.75" d="M181.617 17.8804L177.067 25.7607L172.518 17.8804H181.617Z" fill="white"/>
<path opacity="0.5" d="M167.956 10L172.506 17.8803H163.406L167.956 10Z" fill="white"/>
<path opacity="0.6" d="M167.957 10L163.407 17.8803L158.857 10H167.957Z" fill="white"/>
<path opacity="0.3" d="M195.274 10L199.825 17.8803H190.725L195.274 10Z" fill="white"/>
<path opacity="0.95" d="M195.275 10H204.375L199.826 17.8803L195.275 10Z" fill="white"/>
<path opacity="0.55" d="M181.616 33.6409L186.166 41.5211H177.066L181.616 33.6409Z" fill="white"/>
<path opacity="0.3" d="M181.617 33.641H172.518L177.067 25.7607L181.617 33.641Z" fill="white"/>
<path opacity="0.45" d="M181.617 33.6409L177.067 41.5212L172.518 33.6409H181.617Z" fill="white"/>
<path opacity="0.55" d="M167.956 41.5211L163.406 33.6409H172.506L167.956 41.5211Z" fill="white"/>
<path opacity="0.5" d="M167.957 41.5211H158.857L163.407 33.6409L167.957 41.5211Z" fill="white"/>
<path d="M21.3571 10.0356L18.9487 17.6414L17.3583 22.4795L13.2914 10.0356H10.883L6.86153 22.547L5.27112 17.6414L2.83999 10.0356H0L5.43014 25.7873H8.29293L10.0651 20.4092L12.1099 14.2436L14.1547 20.4092L15.9042 25.7873H18.8352L24.1971 10.0356H21.3571Z" fill="white"/>
<path d="M29.1004 23.3796V18.9691H37.7796V16.6288H29.1004V12.4209H38.1658V10.0356H26.4648V25.7873H38.3021V23.3796H29.1004Z" fill="white"/>
<path d="M54.0266 25.7873H56.9121L49.8007 10.0356H46.8471L39.7129 25.7873H42.5757L44.0298 22.5245H52.5725L54.0266 25.7873ZM48.3012 12.6909L51.5502 20.1392H45.0521L48.3012 12.6909Z" fill="white"/>
<path d="M69.0009 10.0356H56.0273V12.4659H61.1846V25.7873H63.8431V12.4659H69.0009V10.0356Z" fill="white"/>
<path d="M82.3012 10.0356V16.5614H74.0081V10.0356H71.3496V25.7873H74.0081V19.0141H82.3012V25.7873H84.9597V10.0356H82.3012Z" fill="white"/>
<path d="M91.514 23.3796V18.9691H100.193V16.6288H91.514V12.4209H100.58V10.0356H88.8789V25.7873H100.716V23.3796H91.514Z" fill="white"/>
<path d="M114.419 25.7873H117.736L112.897 20.2517C115.442 19.7117 117.009 17.844 117.009 15.2337C117.009 12.1058 114.782 10.0356 111.375 10.0356H103.922V25.7873H106.58V20.4092H109.807L114.419 25.7873ZM114.373 15.2337C114.373 16.9664 113.237 18.0015 111.352 18.0015H106.558V12.4659H111.352C113.237 12.4659 114.373 13.5235 114.373 15.2337Z" fill="white"/>
<path d="M127.567 17.7764L132.974 10.0356H129.862L127.681 13.2084L125.84 15.9313L124.023 13.2084L121.842 10.0356H118.706L124.09 17.7764L118.479 25.7873H121.637L124 22.3895L125.817 19.7117L127.613 22.3895L129.976 25.7873H133.179L127.567 17.7764Z" fill="white"/>
<path d="M149.769 10.0356L143.726 17.664L137.681 10.0356H135.273V25.7873H137.932V14.5136L143.43 21.4218H143.998L149.519 14.4911V25.7873H152.155V10.0356H149.769Z" fill="white"/>
</g>
<defs>
<clipPath id="clip0_307_18574">
<rect width="208.934" height="51.5213" fill="white"/>
</clipPath>
</defs>
</svg>
