<svg width="30" height="30" viewBox="0 0 30 30" fill="none" xmlns="http://www.w3.org/2000/svg">
<path d="M7.7125 20.55C6.925 20.0625 6.4 19.2 6.4 18.2625L6.4 11.775C6.4 10.8375 6.925 9.975 7.7125 9.4875L13.4125 6C14.275 5.475 15.3625 5.475 16.225 6L21.925 9.4875C22.7125 9.975 23.2 10.8375 23.2 11.775V18.2625C23.2 19.2 22.7125 20.0625 21.925 20.55L16.225 24.0375C15.3625 24.5625 14.275 24.5625 13.4125 24.0375L7.7125 20.55ZM13.0375 18.0375L14.8 16.275L16.5625 18.0375C16.9375 18.4125 17.5 18.4125 17.8375 18.0375C18.2125 17.7 18.2125 17.1375 17.8375 16.8L16.075 15.0375L17.8375 13.2375C18.2125 12.9 18.2125 12.3375 17.8375 12C17.5 11.625 16.9375 11.625 16.5625 12L14.8 13.7625L13.0375 12C12.7 11.625 12.1375 11.625 11.7625 12C11.425 12.3375 11.425 12.9 11.7625 13.2375L13.5625 15.0375L11.7625 16.8C11.425 17.1375 11.425 17.7 11.7625 18.0375C12.1375 18.4125 12.7 18.4125 13.0375 18.0375Z" fill="#FF1744"/>
</svg>
