<svg width="16" height="18" viewBox="0 0 16 18" fill="none" xmlns="http://www.w3.org/2000/svg">
<path d="M0.53125 10.125C0.125 9.4375 0.125 8.59375 0.53125 7.875L3.28125 3.125C3.6875 2.40625 4.4375 2 5.21875 2H10.75C11.5625 2 12.2812 2.40625 12.6875 3.125L15.4375 7.875C15.8438 8.59375 15.8438 9.4375 15.4375 10.125L12.6875 14.9062C12.2812 15.625 11.5625 16.0312 10.75 16.0312H5.21875C4.4375 16.0312 3.6875 15.625 3.28125 14.9062L0.53125 10.125ZM5.46875 6.46875C5.15625 6.78125 5.15625 7.25 5.46875 7.53125L6.9375 9L5.46875 10.4688C5.15625 10.7812 5.15625 11.25 5.46875 11.5312C5.75 11.8438 6.21875 11.8438 6.5 11.5312L7.96875 10.0625L9.4375 11.5312C9.75 11.8438 10.2188 11.8438 10.5 11.5312C10.8125 11.25 10.8125 10.7812 10.5 10.4688L9.03125 9L10.5 7.53125C10.8125 7.25 10.8125 6.78125 10.5 6.46875C10.2188 6.1875 9.75 6.1875 9.4375 6.46875L7.96875 7.9375L6.5 6.46875C6.21875 6.1875 5.75 6.1875 5.46875 6.46875Z" fill="#FF1744"/>
</svg>

