<svg width="12" height="13" viewBox="0 0 12 13" fill="none" xmlns="http://www.w3.org/2000/svg">
<path d="M6 0.491882C9.30469 0.491882 12 3.18719 12 6.49188C12 9.82001 9.30469 12.4919 6 12.4919C2.67188 12.4919 0 9.82001 0 6.49188C0 3.18719 2.67188 0.491882 6 0.491882ZM6 11.7419C8.88281 11.7419 11.25 9.39813 11.25 6.49188C11.25 3.60907 8.88281 1.24188 6 1.24188C3.09375 1.24188 0.75 3.60907 0.75 6.49188C0.75 9.39813 3.09375 11.7419 6 11.7419ZM6 4.80438C5.67188 4.80438 5.4375 4.57001 5.4375 4.24188C5.4375 3.93719 5.67188 3.67938 6 3.67938C6.30469 3.67938 6.5625 3.93719 6.5625 4.24188C6.5625 4.57001 6.30469 4.80438 6 4.80438ZM7.125 8.74188C7.3125 8.74188 7.5 8.92938 7.5 9.11688C7.5 9.32782 7.3125 9.49188 7.125 9.49188H4.875C4.66406 9.49188 4.5 9.32782 4.5 9.11688C4.5 8.92938 4.66406 8.74188 4.875 8.74188H5.625V6.49188H5.25C5.03906 6.49188 4.875 6.32782 4.875 6.11688C4.875 5.92938 5.03906 5.74188 5.25 5.74188H6C6.1875 5.74188 6.375 5.92938 6.375 6.11688V8.74188H7.125Z" fill="#FEFBFF"/>
</svg>
