<svg width="408" height="52" viewBox="0 0 408 52" fill="none" xmlns="http://www.w3.org/2000/svg">
<path d="M168.1 25.7615L172.65 33.6423H163.55L168.1 25.7615Z" fill="#1F4D93"/>
<path d="M168.1 25.7616L163.55 17.8809H172.65L168.1 25.7616Z" fill="#183B6F"/>
<path d="M168.1 25.7616H177.2L172.65 33.6424L168.1 25.7616Z" fill="#22549F"/>
<path d="M168.1 25.7616L172.649 17.8809L177.2 25.7616H168.1Z" fill="#245AAB"/>
<path d="M195.42 25.7615L190.87 17.8807H199.97L195.42 25.7615Z" fill="#173A6E"/>
<path d="M195.419 25.7616H186.32L190.87 17.8808L195.419 25.7616Z" fill="#1D4786"/>
<path d="M195.419 25.7616L190.87 33.6424L186.32 25.7616H195.419Z" fill="#22549F"/>
<path d="M209.08 17.8808H199.98L204.53 10L209.08 17.8808Z" fill="#2F74DC"/>
<path d="M209.08 17.8808L204.53 25.7616L199.98 17.8808H209.08Z" fill="#2761B7"/>
<path d="M181.76 17.8808L177.21 10.0001H186.31L181.76 17.8808Z" fill="#317AE8"/>
<path d="M181.76 17.8808H190.86L186.31 25.7616L181.76 17.8808Z" fill="#173A6E"/>
<path d="M181.76 17.8808H172.66L177.21 10.0001L181.76 17.8808Z" fill="#2F74DC"/>
<path d="M181.76 17.8808L186.31 10L190.86 17.8808H181.76Z" fill="#132C51"/>
<path d="M181.76 17.8808L177.21 25.7615L172.66 17.8808H181.76Z" fill="#2761B7"/>
<path d="M168.1 10L172.65 17.8808H163.55L168.1 10Z" fill="#1A407A"/>
<path d="M168.1 10L163.55 17.8808L159 10L168.1 10Z" fill="#1F4D93"/>
<path d="M195.42 10L199.97 17.8808H190.87L195.42 10Z" fill="#132C51"/>
<path d="M195.42 10L204.52 10L199.97 17.8808L195.42 10Z" fill="#317AE8"/>
<path d="M181.76 33.6424L186.31 41.5232H177.21L181.76 33.6424Z" fill="#1D4786"/>
<path d="M181.76 33.6424H172.66L177.21 25.7616L181.76 33.6424Z" fill="#15335F"/>
<path d="M181.76 33.6424L177.21 41.5232L172.66 33.6424H181.76Z" fill="#173A6E"/>
<path d="M168.1 41.5232L163.55 33.6424H172.65L168.1 41.5232Z" fill="#1D4786"/>
<path d="M168.1 41.5232H159L163.55 33.6424L168.1 41.5232Z" fill="#1A407A"/>
<path d="M21.3571 10.0356L18.9487 17.6414L17.3583 22.4794L13.2914 10.0356H10.883L6.86153 22.5469L5.27112 17.6414L2.83999 10.0356H0L5.43014 25.7873H8.29293L10.0651 20.4092L12.1099 14.2435L14.1547 20.4092L15.9042 25.7873H18.8352L24.1971 10.0356H21.3571Z" fill="#1B1C22"/>
<path d="M29.1002 23.3795V18.969H37.7793V16.6287H29.1002V12.4208H38.1656V10.0356H26.4646V25.7873H38.3019V23.3795H29.1002Z" fill="#1B1C22"/>
<path d="M54.0266 25.7873H56.9121L49.8007 10.0356H46.8471L39.7129 25.7873H42.5757L44.0298 22.5244H52.5725L54.0266 25.7873ZM48.3012 12.6908L51.5502 20.1391H45.0521L48.3012 12.6908Z" fill="#1B1C22"/>
<path d="M69 10.0356H56.0264V12.4659H61.1836V25.7873H63.8421V12.4659H69V10.0356Z" fill="#1B1C22"/>
<path d="M82.3017 10.0356V16.5613H74.0086V10.0356H71.3501V25.7873H74.0086V19.014H82.3017V25.7873H84.9602V10.0356H82.3017Z" fill="#1B1C22"/>
<path d="M91.514 23.3795V18.969H100.193V16.6287H91.514V12.4208H100.58V10.0356H88.8789V25.7873H100.716V23.3795H91.514Z" fill="#1B1C22"/>
<path d="M114.419 25.7873H117.736L112.897 20.2516C115.442 19.7116 117.009 17.8439 117.009 15.2336C117.009 12.1058 114.782 10.0356 111.375 10.0356H103.922V25.7873H106.58V20.4092H109.807L114.419 25.7873ZM114.373 15.2336C114.373 16.9663 113.237 18.0014 111.352 18.0014H106.558V12.4659H111.352C113.237 12.4659 114.373 13.5234 114.373 15.2336Z" fill="#1B1C22"/>
<path d="M127.566 17.7764L132.974 10.0356H129.861L127.68 13.2084L125.84 15.9313L124.022 13.2084L121.841 10.0356H118.706L124.09 17.7764L118.478 25.7873H121.637L124 22.3895L125.817 19.7117L127.613 22.3895L129.975 25.7873H133.178L127.566 17.7764Z" fill="#1B1C22"/>
<path d="M149.769 10.0356L143.726 17.6639L137.681 10.0356H135.273V25.7873H137.932V14.5136L143.43 21.4218H143.998L149.519 14.491V25.7873H152.155V10.0356H149.769Z" fill="#1B1C22"/>
</svg>
