<svg width="131" height="24" viewBox="0 0 131 24" fill="none" xmlns="http://www.w3.org/2000/svg">
  <path opacity="0.6" d="M99.6188 11.9996L103.083 17.9995H96.1548L99.6188 11.9996Z" fill="#FEFBFF"/>
  <path opacity="0.4" d="M99.6188 12L96.1548 6.00011H103.083L99.6188 12Z" fill="#FEFBFF"/>
  <path opacity="0.65" d="M99.6196 12.0002H106.548L103.084 18.0001L99.6196 12.0002Z" fill="#FEFBFF"/>
  <path opacity="0.7" d="M99.6196 12L103.084 6.00011L106.548 12H99.6196Z" fill="#FEFBFF"/>
  <path opacity="0.45" d="M120.42 12.0001L116.956 6.00011H123.884L120.42 12.0001Z" fill="#FEFBFF"/>
  <path opacity="0.55" d="M120.419 12H113.491L116.955 6.00011L120.419 12Z" fill="#FEFBFF"/>
  <path opacity="0.65" d="M120.419 12.0002L116.955 18.0001L113.491 12.0002H120.419Z" fill="#FEFBFF"/>
  <path opacity="0.9" d="M130.819 5.99994H123.891L127.355 0L130.819 5.99994Z" fill="#FEFBFF"/>
  <path opacity="0.75" d="M130.819 6.00011L127.355 12L123.891 6.00011H130.819Z" fill="#FEFBFF"/>
  <path opacity="0.95" d="M110.02 5.99994L106.556 0H113.484L110.02 5.99994Z" fill="#FEFBFF"/>
  <path opacity="0.45" d="M110.02 6.00011H116.947L113.484 12L110.02 6.00011Z" fill="#FEFBFF"/>
  <path opacity="0.9" d="M110.019 5.99994H103.091L106.555 0L110.019 5.99994Z" fill="#FEFBFF"/>
  <path d="M110.02 6L113.484 0L116.947 6H110.02Z" fill="#FEFBFF"/>
  <path opacity="0.75" d="M110.019 6.00011L106.555 12L103.091 6.00011H110.019Z" fill="#FEFBFF"/>
  <path opacity="0.5" d="M99.6188 0L103.083 5.99994H96.1548L99.6188 0Z" fill="#FEFBFF"/>
  <path opacity="0.6" d="M99.6194 0L96.1554 5.99994L92.6914 0H99.6194Z" fill="#FEFBFF"/>
  <path opacity="0.3" d="M120.42 0L123.884 5.99994H116.956L120.42 0Z" fill="#FEFBFF"/>
  <path opacity="0.95" d="M120.419 0H127.348L123.884 5.99994L120.419 0Z" fill="#FEFBFF"/>
  <path opacity="0.55" d="M110.02 18L113.484 23.9999H106.556L110.02 18Z" fill="#FEFBFF"/>
  <path opacity="0.3" d="M110.019 18.0001H103.091L106.555 12.0002L110.019 18.0001Z" fill="#FEFBFF"/>
  <path opacity="0.45" d="M110.019 18L106.555 24L103.091 18H110.019Z" fill="#FEFBFF"/>
  <path opacity="0.55" d="M99.6188 23.9999L96.1548 18H103.083L99.6188 23.9999Z" fill="#FEFBFF"/>
  <path opacity="0.5" d="M99.6194 23.9999H92.6914L96.1554 18L99.6194 23.9999Z" fill="#FEFBFF"/>
  <path d="M70.9688 19.5254H68.5371V18.9102H70.9688C71.4766 18.9102 71.8887 18.8281 72.2051 18.6641C72.5254 18.4961 72.7578 18.2695 72.9023 17.9844C73.0508 17.6992 73.125 17.3789 73.125 17.0234C73.125 16.6758 73.0508 16.3555 72.9023 16.0625C72.7578 15.7695 72.5254 15.5352 72.2051 15.3594C71.8887 15.1797 71.4766 15.0898 70.9688 15.0898H68.7891V23H68.0684V14.4688H70.9688C71.5938 14.4688 72.1191 14.5762 72.5449 14.791C72.9746 15.0059 73.2988 15.3047 73.5176 15.6875C73.7363 16.0703 73.8457 16.5117 73.8457 17.0117C73.8457 17.5352 73.7363 17.9863 73.5176 18.3652C73.2988 18.7402 72.9766 19.0273 72.5508 19.2266C72.125 19.4258 71.5977 19.5254 70.9688 19.5254Z" fill="#FEFBFF"/>
  <path d="M74.6953 14.4688H77.4668C78.0566 14.4688 78.5684 14.5645 79.002 14.7559C79.4355 14.9473 79.7695 15.2305 80.0039 15.6055C80.2422 15.9766 80.3613 16.4336 80.3613 16.9766C80.3613 17.3789 80.2754 17.7441 80.1035 18.0723C79.9355 18.4004 79.7031 18.6758 79.4062 18.8984C79.1094 19.1172 78.7656 19.2676 78.375 19.3496L78.123 19.4434H75.1641L75.1523 18.8281H77.6309C78.0762 18.8281 78.4473 18.7422 78.7441 18.5703C79.041 18.3984 79.2637 18.1719 79.4121 17.8906C79.5645 17.6055 79.6406 17.3008 79.6406 16.9766C79.6406 16.5898 79.5566 16.2559 79.3887 15.9746C79.2246 15.6895 78.9805 15.4707 78.6562 15.3184C78.332 15.166 77.9355 15.0898 77.4668 15.0898H75.416V23H74.6953V14.4688ZM79.9629 23L77.7539 19.1855L78.5273 19.1797L80.7305 22.9238V23H79.9629Z" fill="#FEFBFF"/>
  <path d="M87.8906 18.2773V19.1914C87.8906 19.7891 87.8125 20.3301 87.6562 20.8145C87.5039 21.2949 87.2812 21.707 86.9883 22.0508C86.6992 22.3945 86.3516 22.6582 85.9453 22.8418C85.5391 23.0254 85.082 23.1172 84.5742 23.1172C84.0781 23.1172 83.625 23.0254 83.2148 22.8418C82.8086 22.6582 82.459 22.3945 82.166 22.0508C81.873 21.707 81.6465 21.2949 81.4863 20.8145C81.3262 20.3301 81.2461 19.7891 81.2461 19.1914V18.2773C81.2461 17.6797 81.3242 17.1406 81.4805 16.6602C81.6406 16.1758 81.8672 15.7617 82.1602 15.418C82.4531 15.0742 82.8027 14.8105 83.209 14.627C83.6152 14.4434 84.0664 14.3516 84.5625 14.3516C85.0703 14.3516 85.5273 14.4434 85.9336 14.627C86.3398 14.8105 86.6895 15.0742 86.9824 15.418C87.2754 15.7617 87.5 16.1758 87.6562 16.6602C87.8125 17.1406 87.8906 17.6797 87.8906 18.2773ZM87.1758 19.1914V18.2656C87.1758 17.7617 87.1172 17.3086 87 16.9062C86.8867 16.5039 86.7168 16.1602 86.4902 15.875C86.2676 15.5898 85.9941 15.3711 85.6699 15.2188C85.3457 15.0664 84.9766 14.9902 84.5625 14.9902C84.1602 14.9902 83.7988 15.0664 83.4785 15.2188C83.1582 15.3711 82.8848 15.5898 82.6582 15.875C82.4355 16.1602 82.2637 16.5039 82.1426 16.9062C82.0254 17.3086 81.9668 17.7617 81.9668 18.2656V19.1914C81.9668 19.6992 82.0254 20.1562 82.1426 20.5625C82.2637 20.9648 82.4375 21.3105 82.6641 21.5996C82.8906 21.8848 83.1641 22.1035 83.4844 22.2559C83.8086 22.4082 84.1719 22.4844 84.5742 22.4844C84.9922 22.4844 85.3613 22.4082 85.6816 22.2559C86.002 22.1035 86.2734 21.8848 86.4961 21.5996C86.7188 21.3105 86.8867 20.9648 87 20.5625C87.1172 20.1562 87.1758 19.6992 87.1758 19.1914Z" fill="#FEFBFF"/>
  <path d="M12.3641 0L10.9698 4.41127L10.0491 7.21726L7.69466 0H6.30038L3.97228 7.25643L3.05156 4.41127L1.64413 0H0L3.14362 9.13578H4.80094L5.82688 6.01654L7.01069 2.44056L8.19446 6.01654L9.20725 9.13578H10.9041L14.0082 0H12.3641Z" fill="#FEFBFF"/>
  <path d="M16.7182 7.73932V5.1813H21.6304V3.82395H16.7182V1.38339H21.849V0H15.2266V9.13578H21.9261V7.73932H16.7182Z" fill="#FEFBFF"/>
  <path d="M31.1515 9.13578H32.8885L28.6075 0H26.8294L22.5347 9.13578H24.2581L25.1334 7.24336H30.2761L31.1515 9.13578ZM27.7048 1.54001L29.6607 5.85992H25.7489L27.7048 1.54001Z" fill="#FEFBFF"/>
  <path d="M39.5884 0H32.2798V1.40953H35.1851V9.13578H36.6828V1.40953H39.5884V0Z" fill="#FEFBFF"/>
  <path d="M47.7866 0V3.78484H42.9621V0H41.4155V9.13578H42.9621V5.20739H47.7866V9.13578H49.3332V0H47.7866Z" fill="#FEFBFF"/>
  <path d="M52.7876 7.73932V5.1813H58.1465V3.82395H52.7876V1.38339H58.3849V0H51.1606V9.13578H58.4693V7.73932H52.7876Z" fill="#FEFBFF"/>
  <path d="M66.3129 9.13578H68.2141L65.4404 5.92518C66.8988 5.61199 67.7972 4.52872 67.7972 3.01481C67.7972 1.20067 66.5208 0 64.5678 0H60.2964V9.13578H61.8201V6.01654H63.6694L66.3129 9.13578ZM66.2865 3.01481C66.2865 4.01974 65.6353 4.62008 64.5549 4.62008H61.8071V1.40953H64.5549C65.6353 1.40953 66.2865 2.02289 66.2865 3.01481Z" fill="#FEFBFF"/>
  <path d="M74.0943 4.48955L77.2309 0H75.4254L74.1604 1.84018L73.0927 3.4194L72.0386 1.84018L70.7735 0H68.9549L72.0779 4.48955L68.8228 9.13578H70.6549L72.0254 7.16507L73.0796 5.61199L74.121 7.16507L75.4915 9.13578H77.3495L74.0943 4.48955Z" fill="#FEFBFF"/>
  <path d="M86.9357 0L83.4471 4.42434L79.9579 0H78.5679V9.13578H80.1025V2.59718L83.2763 6.60385H83.6042L86.7911 2.58411V9.13578H88.3127V0H86.9357Z" fill="#FEFBFF"/>
</svg>

