<svg width="30" height="19" viewBox="0 0 30 19" fill="none" xmlns="http://www.w3.org/2000/svg">
<path opacity="0.6" d="M5.4505 9.28149L8.17615 13.9222H2.72485L5.4505 9.28149Z" fill="#FEFBFF"/>
<path opacity="0.4" d="M5.45099 9.28149L2.72534 4.64079L8.17664 4.64079L5.45099 9.28149Z" fill="#FEFBFF"/>
<path opacity="0.65" d="M5.45023 9.28152L10.9015 9.28152L8.17588 13.9222L5.45023 9.28152Z" fill="#FEFBFF"/>
<path opacity="0.7" d="M5.45139 9.28152L8.17704 4.64081L10.9027 9.28151L5.45139 9.28152Z" fill="#FEFBFF"/>
<path opacity="0.45" d="M21.8177 9.28149L19.092 4.64079L24.5433 4.64079L21.8177 9.28149Z" fill="#FEFBFF"/>
<path opacity="0.55" d="M21.818 9.28147L16.3667 9.28147L19.0923 4.64077L21.818 9.28147Z" fill="#FEFBFF"/>
<path opacity="0.65" d="M21.815 9.28147L19.0893 13.9222L16.3637 9.28147L21.815 9.28147Z" fill="#FEFBFF"/>
<path opacity="0.9" d="M30.0002 4.6407H24.549L27.2746 0L30.0002 4.6407Z" fill="#FEFBFF"/>
<path opacity="0.75" d="M30.0002 4.64075L27.2746 9.28145L24.549 4.64075L30.0002 4.64075Z" fill="#FEFBFF"/>
<path opacity="0.95" d="M13.6334 4.64075L10.9077 4.43459e-05L16.359 4.43459e-05L13.6334 4.64075Z" fill="#FEFBFF"/>
<path opacity="0.45" d="M13.6326 4.64077L19.0839 4.64077L16.3583 9.28147L13.6326 4.64077Z" fill="#FEFBFF"/>
<path opacity="0.9" d="M13.6356 4.64072L8.18429 4.64072L10.9099 2.18326e-05L13.6356 4.64072Z" fill="#FEFBFF"/>
<path opacity="0.3" d="M13.6356 4.64077L16.3612 7.05335e-05L19.0869 4.64077L13.6356 4.64077Z" fill="#FEFBFF"/>
<path opacity="0.75" d="M13.6326 4.64072L10.907 9.28143L8.1813 4.64073L13.6326 4.64072Z" fill="#FEFBFF"/>
<path opacity="0.5" d="M5.4505 0L8.17615 4.6407H2.72485L5.4505 0Z" fill="#FEFBFF"/>
<path opacity="0.6" d="M5.4513 3.05176e-05L2.72565 4.64073L0 3.13074e-05L5.4513 3.05176e-05Z" fill="#FEFBFF"/>
<path opacity="0.3" d="M21.8152 0L24.5409 4.6407H19.0896L21.8152 0Z" fill="#FEFBFF"/>
<path opacity="0.95" d="M21.8146 2.21099e-07L27.2659 0L24.5402 4.6407L21.8146 2.21099e-07Z" fill="#FEFBFF"/>
<path opacity="0.55" d="M13.6329 13.9222L16.3585 18.5629H10.9072L13.6329 13.9222Z" fill="#FEFBFF"/>
<path opacity="0.3" d="M13.6356 13.9222L8.18429 13.9222L10.9099 9.28152L13.6356 13.9222Z" fill="#FEFBFF"/>
<path opacity="0.45" d="M13.6326 13.9222L10.9069 18.5629L8.1813 13.9222L13.6326 13.9222Z" fill="#FEFBFF"/>
<path opacity="0.55" d="M5.45099 18.5625L2.72534 13.9218H8.17664L5.45099 18.5625Z" fill="#FEFBFF"/>
<path opacity="0.5" d="M5.4513 18.5629H0L2.72565 13.9222L5.4513 18.5629Z" fill="#FEFBFF"/>
</svg>
