<svg width="30" height="19" viewBox="0 0 30 19" fill="none" xmlns="http://www.w3.org/2000/svg">
<path d="M5.451 9.4418L8.17704 14.1627H2.72546L5.451 9.4418Z" fill="#1F4D93"/>
<path d="M5.451 9.44184L2.72546 4.72095H8.17704L5.451 9.44184Z" fill="#183B6F"/>
<path d="M5.45105 9.44186H10.9026L8.17709 14.1628L5.45105 9.44186Z" fill="#22549F"/>
<path d="M5.45105 9.44184L8.17659 4.72095L10.9026 9.44184H5.45105Z" fill="#245AAB"/>
<path d="M21.817 9.44182L19.0914 4.72089H24.543L21.817 9.44182Z" fill="#173A6E"/>
<path d="M21.8168 9.44184H16.3657L19.0913 4.72092L21.8168 9.44184Z" fill="#1D4786"/>
<path d="M21.8168 9.44186L19.0913 14.1628L16.3657 9.44186H21.8168Z" fill="#22549F"/>
<path d="M29.9999 4.72092H24.5488L27.2744 0L29.9999 4.72092Z" fill="#2F74DC"/>
<path d="M29.9999 4.72092L27.2744 9.44183L24.5488 4.72092H29.9999Z" fill="#2761B7"/>
<path d="M13.6342 4.72094L10.9087 3.05176e-05H16.3598L13.6342 4.72094Z" fill="#317AE8"/>
<path d="M13.6342 4.72092H19.0852L16.3597 9.44184L13.6342 4.72092Z" fill="#173A6E"/>
<path d="M13.6342 4.72094H8.18311L10.9086 3.05176e-05L13.6342 4.72094Z" fill="#2F74DC"/>
<path d="M13.6342 4.72091L16.3597 0L19.0852 4.72091H13.6342Z" fill="#132C51"/>
<path d="M13.6342 4.72089L10.9086 9.4418L8.18311 4.72089H13.6342Z" fill="#2761B7"/>
<path d="M5.451 0L8.17704 4.72092H2.72546L5.451 0Z" fill="#1A407A"/>
<path d="M5.45108 0L2.72554 4.72091L0 8.03299e-07L5.45108 0Z" fill="#1F4D93"/>
<path d="M21.817 0L24.543 4.72092H19.0914L21.817 0Z" fill="#132C51"/>
<path d="M21.8169 2.51311e-07L27.2685 0L24.5429 4.72092L21.8169 2.51311e-07Z" fill="#317AE8"/>
<path d="M13.6342 14.1628L16.3598 18.8837H10.9087L13.6342 14.1628Z" fill="#1D4786"/>
<path d="M13.6342 14.1628H8.18311L10.9086 9.44186L13.6342 14.1628Z" fill="#15335F"/>
<path d="M13.6342 14.1628L10.9086 18.8837L8.18311 14.1628H13.6342Z" fill="#173A6E"/>
<path d="M5.451 18.8837L2.72546 14.1628H8.17704L5.451 18.8837Z" fill="#1D4786"/>
<path d="M5.45108 18.8837H0L2.72554 14.1628L5.45108 18.8837Z" fill="#1A407A"/>
</svg>
