<svg width="16" height="18" viewBox="0 0 16 18" fill="none" xmlns="http://www.w3.org/2000/svg">
<path d="M0.53125 7.875L3.28125 3.125C3.6875 2.40625 4.40625 2 5.21875 2H10.75C11.5625 2 12.2812 2.40625 12.6875 3.125L15.4375 7.875C15.8438 8.59375 15.8438 9.4375 15.4375 10.125L12.6875 14.9062C12.2812 15.625 11.5625 16.0312 10.75 16.0312H5.21875C4.4375 16.0312 3.6875 15.625 3.28125 14.9062L0.53125 10.125C0.125 9.4375 0.125 8.59375 0.53125 7.875ZM1.8125 9.375L4.5625 14.1562C4.71875 14.4062 4.96875 14.5312 5.21875 14.5312H10.75C11 14.5312 11.25 14.4062 11.4062 14.1562L14.1562 9.375C14.2812 9.15625 14.2812 8.875 14.1562 8.625L11.4062 3.875C11.25 3.625 11 3.5 10.75 3.5H5.21875C4.96875 3.5 4.71875 3.625 4.5625 3.875L1.8125 8.625C1.6875 8.875 1.6875 9.15625 1.8125 9.375Z" fill="#00E676"/>
</svg>

