<svg width="14" height="18" viewBox="0 0 14 18" fill="none" xmlns="http://www.w3.org/2000/svg">
<path d="M5 3.5C5 2.6875 5.65625 2 6.5 2H7.5C8.3125 2 9 2.6875 9 3.5V14.5C9 15.3438 8.3125 16 7.5 16H6.5C5.65625 16 5 15.3438 5 14.5V3.5ZM0 9.5C0 8.6875 0.65625 8 1.5 8H2.5C3.3125 8 4 8.6875 4 9.5V14.5C4 15.3438 3.3125 16 2.5 16H1.5C0.65625 16 0 15.3438 0 14.5V9.5ZM11.5 4H12.5C13.3125 4 14 4.6875 14 5.5V14.5C14 15.3438 13.3125 16 12.5 16H11.5C10.6562 16 10 15.3438 10 14.5V5.5C10 4.6875 10.6562 4 11.5 4Z" fill="#FF1744"/>
</svg>
